# Rhino

mtllib Area Stazione Terrain.mtl
o object_1
usemtl Area
v 39.066506 5.42413639E-05 23.0576142
v 160.566713 5.42413639E-05 23.1929414
v 190.931225 5.42413639E-05 23.1598489
v 221.316816 5.42413639E-05 23.260605
v -143.183804 5.42413639E-05 22.8546235
v -82.4337009 5.42413639E-05 22.9222871
v -21.6835974 5.42413639E-05 22.9899506
v 8.0366333 5.42413639E-05 18.8656769
v 37.6714105 5.42413639E-05 14.1987741
v 67.3061877 5.42413639E-05 9.53187138
v 92.5506657 5.42413639E-05 -23.0133788
v 153.290135 5.42413639E-05 -23.0132424
v 183.659851 5.42413639E-05 -23.0132948
v 244.39932 5.42413639E-05 -23.0131584
v -264.684011 5.42413639E-05 22.7192963
v -203.933908 5.42413639E-05 22.7869599
v -174.438933 5.42413639E-05 17.2323161
v -144.804155 5.42413639E-05 12.5654134
v -115.169378 5.42413639E-05 7.89851065
v -89.667704 5.42413639E-05 -23.0135469
v -28.9282347 5.42413639E-05 -23.0134105
v 1.44148089 5.42413639E-05 -23.0134629
v 62.1809501 5.42413639E-05 -23.0133265
v -211.146604 5.42413639E-05 -23.0135786
v -180.776889 5.42413639E-05 -23.013631
v -120.03742 5.42413639E-05 -23.0134946
v 39.0665184 5.51741413E-05 23.0576926
v 39.0664751 5.39634243E-05 23.0576926
v 39.0485488 5.42413639E-05 23.0576726
v 58.8479023 5.42413639E-05 23.0797253
v 160.566725 5.19932887E-05 23.1930206
v 160.566659 5.47064714E-05 23.1930205
v 140.649535 5.42413639E-05 23.1708366
v 190.941777 -0.00421745711 23.2268526
v 190.877523 -0.00184363856 23.226781
v 221.316829 4.71525677E-05 23.2606846
v 221.316739 4.9153998E-05 23.2606845
v 241.401286 5.42413639E-05 23.2830548
v 270.410556 5.42413639E-05 23.3153319
v 270.410556 5.09071875E-05 23.3153656
v 261.948363 5.42413639E-05 23.3059403
v -143.183792 5.27781713E-05 22.8547007
v -143.183836 5.28411283E-05 22.8547006
v -162.597535 5.42413639E-05 22.8330775
v -123.705481 5.42413639E-05 22.8763958
v -82.4336886 5.21976678E-05 22.9223646
v -82.4337419 5.26573955E-05 22.9223646
v -101.948121 5.42413639E-05 22.9006293
v -62.8543535 5.42413639E-05 22.9441723
v -21.6835851 5.01745385E-05 22.9900286
v -21.6836531 5.12041121E-05 22.9900286
v -41.2987068 5.42413639E-05 22.9681811
v -21.6657073 5.42413639E-05 22.9900485
v 8.6914666 5.42413639E-05 23.0238606
v 9.13889479 5.42413639E-05 23.024359
v 69.4415701 5.42413639E-05 23.0915246
v 99.7801058 5.42413639E-05 23.1253159
v 99.8166219 5.42413639E-05 23.1253566
v 122.920368 5.42413639E-05 -23.0134036
v 122.920386 5.42413639E-05 -23.0134036
v 130.191674 5.42413639E-05 23.1591886
v 99.8273547 5.42413639E-05 23.1253685
v 112.431265 5.42413639E-05 -23.0134131
v 130.191701 5.42413639E-05 23.1591886
v 128.127677 5.42413639E-05 -23.0133988
v 214.029553 5.42413639E-05 -23.0133207
v 214.02957 5.42413639E-05 -23.0133207
v 203.975165 5.42413639E-05 -23.0133298
v 251.691881 5.42413639E-05 23.2945165
v 219.021049 5.42413639E-05 -23.0133161
v 270.452509 5.42413639E-05 -14.319722
v 270.411847 5.42413639E-05 22.1571507
v 251.691907 5.42413639E-05 23.2945166
v 270.462171 5.42413639E-05 -22.9877503
v -264.683999 5.18546117E-05 22.7193727
v -264.684053 5.18301067E-05 22.7193726
v -264.776076 -0.00315059952 22.7192701
v -245.407737 5.42413639E-05 22.7408428
v -258.069831 5.26735662E-05 22.7267396
v -203.933896 5.06902885E-05 22.7870367
v -203.933965 5.13839549E-05 22.7870366
v -223.246949 5.42413639E-05 22.7655256
v -184.556609 5.42413639E-05 22.8086193
v -173.558844 5.42413639E-05 22.8208687
v -173.558715 5.42413639E-05 22.8208688
v -112.80874 5.42413639E-05 22.8885327
v -59.2980034 5.42413639E-05 -23.0135694
v -59.2979836 5.42413639E-05 -23.0135694
v -52.0586369 5.42413639E-05 22.9561966
v -70.6565352 5.42413639E-05 -23.0135797
v -52.0586086 5.42413639E-05 22.9561967
v -53.6590659 5.42413639E-05 -23.0135643
v 31.8111802 5.42413639E-05 -23.0134865
v 31.811201 5.42413639E-05 -23.0134865
v 20.8873648 5.42413639E-05 -23.0134964
v 37.2343057 5.42413639E-05 -23.0134816
v 62.1832181 5.42413639E-05 -23.0134588
v 92.5506575 5.42413639E-05 -23.0134312
v 92.5509051 5.42413639E-05 -23.0134312
v 153.290114 6.484613E-05 -23.013376
v 153.290371 6.65712246E-05 -23.013376
v 183.659842 5.91833806E-05 -23.0133483
v 183.659922 6.02281399E-05 -23.0133483
v 244.399299 7.18242399E-05 -23.0132931
v 244.399436 7.40050288E-05 -23.0132931
v 257.159826 0.00189635464 -23.0132814
v 270.4622 0.00379610671 -23.0132693
v -271.620816 -0.241137134 22.7116464
v -271.620621 5.42413639E-05 17.8736839
v -271.619043 5.42413639E-05 -21.3180715
v -241.516374 5.42413639E-05 -23.0137352
v -241.516353 5.42413639E-05 -23.0137352
v -234.308947 5.42413639E-05 22.7532047
v -271.61902 5.42413639E-05 -21.8706283
v -271.618975 5.42413639E-05 -23.0048703
v -241.625018 5.42413639E-05 -23.0137353
v -234.308918 5.42413639E-05 22.7532047
v -235.445809 5.42413639E-05 -23.0137297
v -150.407192 5.42413639E-05 -23.0136523
v -150.407168 5.42413639E-05 -23.0136523
v -162.200435 5.42413639E-05 -23.013663
v -144.552437 5.42413639E-05 -23.013647
v -120.036275 5.42413639E-05 -23.0136246
v -89.6677118 5.42413639E-05 -23.013597
v -89.667523 5.54651153E-05 -23.013597
v -28.9282554 5.69032393E-05 -23.0135418
v -28.9280262 5.76224583E-05 -23.0135418
v 1.44147282 5.55612049E-05 -23.0135141
v 1.44154335 5.570507E-05 -23.0135141
v 62.1809293 5.93416764E-05 -23.0134589
v 62.1810573 6.02872606E-05 -23.0134589
v -271.618974 -0.000528032026 -23.0137626
v -211.146625 5.23199424E-05 -23.0137076
v -211.146419 5.60582427E-05 -23.0137076
v -180.776897 5.49309236E-05 -23.0136799
v -180.776834 5.56101126E-05 -23.0136799
v -120.03744 5.81089448E-05 -23.0136247
v -120.03732 5.80712502E-05 -23.0136247
vn -0.00540177617 0.999976039 -0.0043228562
vn 0.00900830142 0.999884307 0.0122572789
vn 0.00671615591 0.999561012 0.0288564116
vn 0.0032493677 0.99913168 0.0415374711
vn 0.000440487638 0.999955058 0.00947282836
vn 0.00292629423 0.999905944 0.0133972708
vn 0.00168175611 0.999747753 0.0223961081
vn -6.24259628E-05 0.999934852 0.0114125721
vn 0 1 0
vn 0 1 0
vn 0 1 0
vn -0.00334746554 0.999389589 0.0347744077
vn -0.00211371062 0.998856783 0.0477562398
vn -0.00354314968 0.997846961 0.0654896274
vn -0.00677616987 0.999815762 0.0179598704
vn 0.00112648099 0.999802649 0.0198346637
vn -1.07750457E-05 0.99995321 0.00967423338
vn 0 1 0
vn 0 1 0
vn -0.000479823822 0.999990344 0.0043745921
vn -0.000162881537 0.999935448 0.0113585452
vn -0.000556145271 0.999918163 0.0127798151
vn -0.00149696541 0.999805689 0.0196569022
vn -0.00436050305 0.999960661 -0.00772455474
vn -0.00315782032 0.999974847 0.00634833984
vn 0.000319038663 0.999887407 0.0150022702
vn -0.00540179573 0.999976039 -0.00432288786
vn -0.00540180225 0.999976039 -0.0043228846
vn -0.00540598808 0.999976099 -0.00431455951
vn -0.00343234511 0.99996376 -0.00778748281
vn 0.00900834054 0.999884307 0.0122572221
vn 0.00900832471 0.999884307 0.0122571895
vn 0.00813046191 0.99996376 0.00252292119
vn 0.00674247928 0.999561906 0.028818462
vn 0.00675424933 0.999563158 0.0287727024
vn 0.00324937748 0.99913168 0.0415374488
vn 0.00324940938 0.99913168 0.0415373892
vn 0.00147170469 0.998962462 0.0455170758
vn -0.0144517329 0.998556554 0.0517301075
vn -0.0144517347 0.998556554 0.0517301075
vn -0.00766489655 0.99872756 0.0498444177
vn 0.00044048304 0.999955058 0.00947280787
vn 0.000440475676 0.999955058 0.0094728088
vn -0.00261953683 0.999895394 0.0142239584
vn 0.000982864527 0.999948144 0.0101375384
vn 0.00292629562 0.999905944 0.0133972419
vn 0.0029262891 0.999905944 0.0133972429
vn 0.00187267421 0.999931633 0.0115419719
vn 0.00339792226 0.999852419 0.016840132
vn 0.00168173213 0.999747753 0.0223960821
vn 0.00168176205 0.999747753 0.0223960616
vn 0.00295791868 0.9997949 0.0200341158
vn 0.00167339738 0.999747932 0.0223886389
vn -0.0121355429 0.999878764 0.0097550489
vn -0.012335659 0.999878228 0.00955933332
vn -0.00237761089 0.999950707 -0.00964283757
vn 0.00258056307 0.9999457 -0.0100956392
vn 0.00258275517 0.999945641 -0.0101042148
vn -0.0026562328 0.999912262 0.0129770301
vn -0.00265622977 0.999912262 0.0129770348
vn 0.00766921649 0.999967217 -0.00258835242
vn 0.00258181733 0.999945641 -0.0100996327
vn -0.00173885748 0.999962389 0.00849519111
vn 0.00766921556 0.999967217 -0.00258833286
vn -0.00277485 0.999856472 0.0167150553
vn -0.00314687099 0.998391986 0.0565994903
vn -0.00314687309 0.998391986 0.0565994941
vn -0.00280485512 0.998554647 0.0536722653
vn 0.000560874585 0.998868406 0.047555767
vn -0.00321202446 0.998307884 0.0580609851
vn -0.0314761996 0.997213185 0.0676394999
vn -0.0149757219 0.998523295 0.0522200838
vn 0.000560843269 0.998868406 0.0475557707
vn -0.0338401459 0.996880889 0.0712974891
vn -0.00677616894 0.999815762 0.0179598648
vn -0.00677618012 0.999815762 0.0179598648
vn -0.00678616716 0.999815583 0.0179650374
vn -0.00120507868 0.999831438 0.0183200687
vn -0.00486461679 0.999824643 0.0180835221
vn 0.00112646865 0.999802649 0.0198346656
vn 0.00112648087 0.999802649 0.0198346525
vn 0.00168355682 0.999818027 0.0190033596
vn -0.00236540241 0.999835789 0.017966656
vn -0.0043472047 0.999847651 0.016906267
vn -0.00434722006 0.999847651 0.0169062521
vn 0.00128628209 0.999943972 0.0105093652
vn -0.000311309326 0.99995172 0.00982023217
vn -0.000311309006 0.99995172 0.00982023496
vn 0.00365794823 0.999817729 0.0187383685
vn -0.000374337978 0.999969661 0.00778353866
vn 0.00365794846 0.999817729 0.0187383704
vn -0.000283751549 0.999948919 0.0101058604
vn -0.00121457747 0.999878764 0.0155252824
vn -0.00121457747 0.999878764 0.015525274
vn -0.000977744232 0.999893844 0.0145377675
vn -0.00126500567 0.999866962 0.0162630863
vn -0.00149686798 0.999805629 0.0196572989
vn -6.10370909E-09 1 7.43115095E-07
vn -4.99852462E-08 1 3.4326348E-07
vn -0.00334754935 0.999389589 0.0347747691
vn -0.00334752048 0.999389589 0.0347747728
vn -0.0021137367 0.998856783 0.0477563404
vn -0.00211373856 0.998856783 0.0477563404
vn -0.00354320789 0.997846961 0.0654897764
vn -0.00354327285 0.997846961 0.0654897094
vn -0.0183771644 0.997492373 0.0683465153
vn -0.0338378586 0.996880174 0.071308285
vn -0.00753086433 0.999803424 0.0183424689
vn -0.00870276429 0.999882221 0.0126402723
vn -0.0131731257 0.999352515 -0.0334812365
vn -0.00516478764 0.999444425 -0.0329274237
vn -0.00516478112 0.999444425 -0.0329274237
vn 0.00200262689 0.999826372 0.018527152
vn -0.0132295135 0.999330223 -0.034118887
vn -0.0133452406 0.999283135 -0.0354276933
vn -0.00519431522 0.999443948 -0.0329364873
vn 0.00200262782 0.999826372 0.0185271762
vn -0.00500427419 0.999598444 -0.0278911199
vn -0.0013922631 0.999915898 0.0128947906
vn -0.00139226299 0.999915898 0.0128947813
vn -0.00207788171 0.99994427 0.0103527103
vn -0.00106235663 0.999910951 0.0133010847
vn 0.000319022511 0.999887407 0.0150024639
vn -0.000479818234 0.999990344 0.00437482353
vn -0.000479820679 0.999990344 0.00437472342
vn -0.000162873461 0.999935448 0.0113587007
vn -0.000162886819 0.999935448 0.0113586616
vn -0.000556146086 0.999918163 0.012779858
vn -0.000556153478 0.999918163 0.0127798542
vn -0.00149698986 0.999805689 0.0196569767
vn -0.00149698416 0.999805689 0.0196569953
vn -0.0133501943 0.999283195 -0.0354245342
vn -0.00436056592 0.999960661 -0.00772451283
vn -0.00436053984 0.999960661 -0.00772442669
vn -0.00315783732 0.999974847 0.00634835195
vn -0.00315782684 0.999974847 0.00634836406
vn 0.000319025043 0.999887407 0.0150023028
vn 0.000319030078 0.999887407 0.0150023131
f 2//2 3//3 13//13 12//12
f 7//7 8//8 22//22 21//21
f 16//16 17//17 25//25 24//24
f 1//1 28//28 27//27
f 1//1 29//29 28//28
f 27//27 30//30 1//1
f 32//32 31//31 2//2
f 2//2 33//33 32//32
f 35//35 34//34 3//3
f 3//3 2//2 35//35
f 31//31 35//35 2//2
f 4//4 37//37 36//36
f 4//4 3//3 37//37
f 34//34 37//37 3//3
f 4//4 36//36 38//38
f 41//41 40//40 39//39
f 5//5 43//43 42//42
f 5//5 44//44 43//43
f 5//5 42//42 45//45
f 6//6 47//47 46//46
f 6//6 48//48 47//47
f 6//6 46//46 49//49
f 7//7 51//51 50//50
f 7//7 52//52 51//51
f 7//7 50//50 53//53
f 53//53 8//8 7//7
f 54//54 8//8 53//53
f 1//1 9//9 29//29
f 55//55 29//29 9//9
f 8//8 55//55 9//9
f 54//54 55//55 8//8
f 10//10 1//1 30//30
f 30//30 56//56 10//10
f 57//57 10//10 56//56
f 10//10 57//57 11//11
f 58//58 11//11 57//57
f 61//61 59//59 62//62
f 59//59 61//61 60//60
f 11//11 58//58 62//62
f 63//63 11//11 62//62
f 59//59 63//63 62//62
f 12//12 33//33 2//2
f 64//64 33//33 12//12
f 65//65 61//61 64//64
f 61//61 65//65 60//60
f 12//12 65//65 64//64
f 4//4 66//66 3//3
f 4//4 67//67 66//66
f 68//68 13//13 3//3
f 3//3 66//66 68//68
f 14//14 4//4 38//38
f 38//38 69//69 14//14
f 70//70 67//67 4//4
f 14//14 70//70 4//4
f 39//39 72//72 41//41
f 73//73 41//41 71//71
f 41//41 72//72 71//71
f 71//71 69//69 73//73
f 71//71 74//74 14//14
f 69//69 71//71 14//14
f 15//15 76//76 75//75
f 15//15 77//77 76//76
f 79//79 15//15 75//75
f 15//15 79//79 78//78
f 16//16 81//81 80//80
f 16//16 82//82 81//81
f 16//16 80//80 83//83
f 16//16 83//83 17//17
f 84//84 17//17 83//83
f 18//18 44//44 5//5
f 85//85 44//44 18//18
f 17//17 85//85 18//18
f 84//84 85//85 17//17
f 19//19 5//5 45//45
f 45//45 86//86 19//19
f 48//48 19//19 86//86
f 19//19 48//48 6//6
f 87//87 6//6 49//49
f 88//88 87//87 49//49
f 49//49 89//89 88//88
f 90//90 20//20 6//6
f 6//6 87//87 90//90
f 21//21 52//52 7//7
f 91//91 52//52 21//21
f 92//92 89//89 91//91
f 89//89 92//92 88//88
f 21//21 92//92 91//91
f 9//9 93//93 8//8
f 93//93 9//9 94//94
f 95//95 22//22 8//8
f 8//8 93//93 95//95
f 96//96 94//94 9//9
f 9//9 23//23 96//96
f 97//97 11//11 98//98
f 11//11 97//97 23//23
f 63//63 99//99 11//11
f 99//99 98//98 11//11
f 12//12 100//100 65//65
f 13//13 101//101 12//12
f 13//13 102//102 101//101
f 101//101 100//100 12//12
f 68//68 103//103 13//13
f 103//103 102//102 13//13
f 70//70 14//14 104//104
f 105//105 14//14 106//106
f 74//74 106//106 14//14
f 74//74 107//107 106//106
f 105//105 104//104 14//14
f 15//15 109//109 77//77
f 108//108 77//77 109//109
f 110//110 109//109 15//15
f 111//111 15//15 78//78
f 112//112 111//111 78//78
f 78//78 113//113 112//112
f 116//116 114//114 110//110
f 116//116 110//110 15//15
f 116//116 115//115 114//114
f 111//111 116//116 15//15
f 24//24 82//82 16//16
f 117//117 82//82 24//24
f 118//118 113//113 117//117
f 113//113 118//118 112//112
f 24//24 118//118 117//117
f 18//18 119//119 17//17
f 119//119 18//18 120//120
f 121//121 25//25 17//17
f 17//17 119//119 121//121
f 122//122 120//120 18//18
f 26//26 122//122 18//18
f 123//123 20//20 124//124
f 20//20 123//123 26//26
f 90//90 125//125 20//20
f 125//125 124//124 20//20
f 92//92 21//21 126//126
f 22//22 127//127 21//21
f 22//22 128//128 127//127
f 127//127 126//126 21//21
f 95//95 129//129 22//22
f 129//129 128//128 22//22
f 96//96 23//23 130//130
f 97//97 131//131 23//23
f 131//131 130//130 23//23
f 116//116 132//132 115//115
f 24//24 133//133 118//118
f 25//25 134//134 24//24
f 134//134 25//25 135//135
f 134//134 133//133 24//24
f 121//121 136//136 25//25
f 136//136 135//135 25//25
f 26//26 137//137 122//122
f 123//123 138//138 26//26
f 138//138 137//137 26//26
f 1//1 10//10 9//9
f 5//5 19//19 18//18
f 6//6 20//20 19//19
f 9//9 10//10 23//23
f 10//10 11//11 23//23
f 18//18 19//19 26//26
f 19//19 20//20 26//26
